<svg width="60" height="60" viewBox="0 0 60 60" fill="none" xmlns="http://www.w3.org/2000/svg">
<circle cx="30" cy="30" r="30" fill="#12372A"/>
<path d="M43.856 41.3428L41.8339 35.6H39.6152L40.8473 41.2H19.1535L20.3856 35.6H18.1668L16.1433 41.3428C15.63 42.8044 16.5397 44 18.1668 44H41.8339C43.4611 44 44.3708 42.8044 43.856 41.3428ZM37.3964 23C37.3964 21.1435 36.6171 19.363 35.2301 18.0503C33.8431 16.7375 31.9619 16 30.0004 16C28.0389 16 26.1577 16.7375 24.7707 18.0503C23.3836 19.363 22.6044 21.1435 22.6044 23C22.6044 29.685 30.0004 37 30.0004 37C30.0004 37 37.3964 29.685 37.3964 23ZM26.0066 23.084C26.007 22.0817 26.4279 21.1206 27.1769 20.412C27.9258 19.7035 28.9414 19.3054 30.0004 19.3054C31.0594 19.3054 32.0751 19.7036 32.8239 20.4123C33.5728 21.1211 33.9935 22.0824 33.9935 23.0847C33.9935 24.087 33.5728 25.0483 32.8239 25.7571C32.0751 26.4658 31.0594 26.864 30.0004 26.864C28.9412 26.864 27.9253 26.4658 27.1763 25.7569C26.4273 25.048 26.0066 24.0865 26.0066 23.084Z" fill="#F1C30C"/>
</svg>
