<svg width="60" height="60" viewBox="0 0 60 60" fill="none" xmlns="http://www.w3.org/2000/svg">
<circle cx="30" cy="30" r="30" fill="#12372A"/>
<path d="M35.9796 29.5443L44.1813 22.4795V36.5284L35.9796 29.5443ZM25.4111 30.7407L28.2913 33.2195C28.7433 33.6002 29.3326 33.8302 29.9767 33.8302H29.9993H30.0167C30.662 33.8302 31.2514 33.5989 31.7087 33.2155L31.7047 33.2181L34.5849 30.7394L43.3399 38.1941H16.6601L25.4111 30.7407ZM16.6481 20.8045H43.3559L30.5274 31.8512C30.3837 31.9654 30.2048 32.0271 30.0207 32.0257H30.002H29.9847C29.7999 32.027 29.6204 31.9649 29.4766 31.8499L29.478 31.8512L16.6481 20.8045ZM15.8201 22.4782L24.0204 29.543L15.8201 36.5231V22.4782ZM44.6213 19.2512C44.3013 19.0925 43.9252 19 43.5266 19H16.4788C16.0925 19.0015 15.7116 19.0906 15.3654 19.2604L15.3801 19.2538C14.9665 19.4567 14.6183 19.77 14.3745 20.1584C14.1307 20.5467 14.001 20.9949 14 21.4523V37.5437C14.0007 38.195 14.2619 38.8193 14.7264 39.2798C15.1909 39.7403 15.8206 39.9993 16.4774 40H43.5226C44.1794 39.9993 44.8091 39.7403 45.2736 39.2798C45.7381 38.8193 45.9993 38.195 46 37.5437V21.4523C46 20.4912 45.4413 19.6584 44.6279 19.2578L44.6133 19.2512H44.6213Z" fill="#F1C30C"/>
</svg>
