<svg width="60" height="60" viewBox="0 0 60 60" fill="none" xmlns="http://www.w3.org/2000/svg">
<circle cx="30" cy="30" r="30" fill="#12372A"/>
<path d="M20.8322 26.1178C23.1522 30.52 26.89 34.1289 31.4494 36.3689L34.9939 32.9467C35.445 32.5111 36.0733 32.3867 36.6372 32.5578C38.4417 33.1333 40.375 33.4444 42.3889 33.4444C42.8162 33.4444 43.226 33.6083 43.5281 33.9001C43.8303 34.1918 44 34.5874 44 35V40.4444C44 40.857 43.8303 41.2527 43.5281 41.5444C43.226 41.8361 42.8162 42 42.3889 42C35.1249 42 28.1584 39.2139 23.022 34.2546C17.8856 29.2953 15 22.5691 15 15.5556C15 15.143 15.1697 14.7473 15.4719 14.4556C15.774 14.1639 16.1838 14 16.6111 14H22.25C22.6773 14 23.0871 14.1639 23.3892 14.4556C23.6914 14.7473 23.8611 15.143 23.8611 15.5556C23.8611 17.5 24.1833 19.3667 24.7794 21.1089C24.9567 21.6533 24.8278 22.26 24.3767 22.6956L20.8322 26.1178Z" fill="#F1C30C"/>
</svg>
